<?xml version="1.0" encoding="UTF-8"?>
<svg id="Layer_2" data-name="Layer 2" xmlns="http://www.w3.org/2000/svg" viewBox="0 0 108.31 72.45">
  <defs>
    <style>
      .cls-1 {
        fill: #b24349;
      }

      .cls-1, .cls-2, .cls-3, .cls-4, .cls-5, .cls-6, .cls-7, .cls-8, .cls-9 {
        stroke-width: 0px;
      }

      .cls-2 {
        fill: #1e1d1a;
      }

      .cls-3 {
        fill: #e5c182;
      }

      .cls-4 {
        fill: none;
      }

      .cls-5 {
        fill: #e09231;
      }

      .cls-6 {
        fill: #101010;
      }

      .cls-7 {
        fill: #bf914e;
      }

      .cls-8 {
        fill: #cea563;
      }

      .cls-9 {
        fill: #d7d296;
      }
    </style>
  </defs>
  <g id="Layer_1-2" data-name="Layer 1">
    <g>
      <rect class="cls-4" width="108.31" height="72.45"/>
      <path class="cls-5" d="M74.39,36.95c-2.23,0-2.23-.8-4.46-.8-1.51,0-2.72,1.63-2.72,3.14,0,4.44-.06,4.44-.06,8.88s.53,4.44.53,8.88c0,1.51-1.7,2.86-3.22,2.86-3.43,0-3.43-.6-6.87-.6s-3.44.63-6.87.63-3.44-.15-6.87-.15c-1.51,0-2.76-1.23-2.76-2.74,0-4.44.53-4.44.53-8.88s-.14-4.44-.14-8.88c0-1.51-1.59-2.96-3.1-2.96-2.22,0-2.22.25-4.45.25-2.37,0-3.4-2.64-1.81-4.4,2.53-2.79,2.31-2.98,4.84-5.77s2.78-2.56,5.31-5.35,2.23-3.06,4.76-5.86,2.65-2.68,5.18-5.47c1.09-1.2,2.61-1.02,3.7.17,2.53,2.79,2.64,2.69,5.16,5.47s2.77,2.57,5.3,5.36,2.26,3.03,4.79,5.82,2.61,2.72,5.14,5.51c1.6,1.76.45,4.87-1.92,4.87Z"/>
      <g>
        <path class="cls-6" d="M26.36,54.93c0,2.53-.8,4.93-2.46,6.59s-4.06,2.48-6.59,2.48-5.01-.75-6.67-2.41-2.27-4.14-2.27-6.67c0-2.19,3.88-3.69,8.94-3.69s9.06,1.5,9.06,3.69Z"/>
        <path class="cls-2" d="M26.64,54.93c0,2.19-4.27,3.7-9.34,3.7s-9.16-1.51-9.16-3.7,4.1-4.39,9.16-4.39,9.34,2.2,9.34,4.39Z"/>
        <path class="cls-1" d="M24.35,54.93c0,1.64-3.25,2.76-7.04,2.76s-6.66-1.12-6.66-2.76,2.87-3.17,6.66-3.17,7.04,1.53,7.04,3.17Z"/>
        <path class="cls-6" d="M45.75,54.93c0,2.53-.79,4.75-2.45,6.41s-3.87,2.7-6.41,2.7-4.73-1.05-6.39-2.71-3-3.86-3-6.39c0-2.19,4.33-4.03,9.39-4.03s8.86,1.84,8.86,4.03Z"/>
        <path class="cls-2" d="M45.7,54.93c0,2.19-3.74,3.59-8.81,3.59s-9.07-1.4-9.07-3.59,4.01-3.59,9.07-3.59,8.81,1.4,8.81,3.59Z"/>
        <path class="cls-9" d="M44.1,54.93c0,1.64-3.41,2.59-7.21,2.59s-7.02-.95-7.02-2.59,3.24-2.84,7.02-2.84,7.21,1.2,7.21,2.84Z"/>
      </g>
      <g>
        <path class="cls-3" d="M59.88,48.89c16.43,3.23,16.93,2.39,32.15,9.37,2.18,1,.24,4.82-2.11,4.36-17.01-3.34-16.99-4.13-32.86-11.12-1.88-.83.95-2.98,2.82-2.61Z"/>
        <path class="cls-7" d="M92.02,58.3c2.51,0,2.46,1.78,2.58,4.29.11,2.27.1,3.98-2.18,3.98s-1.74-1.75-2.49-3.98c-.85-2.52-.3-4.28,2.09-4.28Z"/>
        <path class="cls-8" d="M57.08,51.46c16.83,4.15,16.92,4.24,32.86,11.08,2.16.93,4.78,4.54,2.49,3.98-17.85-4.4-17.81-4.85-34.76-11.97-1.79-.75-2.17-3.48-.59-3.09Z"/>
        <path class="cls-3" d="M85.7,48.81c-12.07,10.42-11.33,11.9-25.63,18.97-3.12,1.54-8.69-.95-6.05-3.23,12.77-11.04,14.2-9.2,29.26-16.82,1.41-.71,3.42.22,2.42,1.08Z"/>
        <path class="cls-7" d="M86.66,51.58c1.08-.94.28-3.5-.94-2.75-13.59,8.34-13.57,8.54-25.58,19.03-.98.85.12,2.65,1.32,2.16,14.5-5.84,13.44-8.18,25.2-18.45Z"/>
        <path class="cls-8" d="M53.98,64.49c3.45.39,3.31,1.25,6.11,3.32,1.04.77,2.65,2.34,1.36,2.19-3.4-.38-3.38-.91-6.26-2.75-1.54-.98-2.7-2.93-1.21-2.76Z"/>
        <path class="cls-8" d="M73.36,52.79c-2.51,1.04-2.61.93-4.8,2.54-.39.29.45.53.9.35,2.47-1.03,2.47-1.11,4.65-2.67.34-.24-.39-.37-.75-.22Z"/>
        <path class="cls-7" d="M68.56,55.32c-1.59.76-1.52.93-2.81,2.13-.15.14.22.19.4.1,1.72-.83,1.86-.65,3.3-1.89.39-.34-.46-.55-.89-.34Z"/>
      </g>
    </g>
  </g>
</svg>