<?xml version="1.0" encoding="UTF-8"?>
<svg id="Layer_2" data-name="Layer 2" xmlns="http://www.w3.org/2000/svg" viewBox="0 0 20.04 20.04">
  <defs>
    <style>
      .cls-1 {
        fill: #f8f3eb;
      }

      .cls-1, .cls-2 {
        stroke-width: 0px;
      }

      .cls-2 {
        fill: none;
      }
    </style>
  </defs>
  <g id="Layer_1-2" data-name="Layer 1">
    <g>
      <circle class="cls-2" cx="10.02" cy="10.02" r="10.02"/>
      <circle class="cls-2" cx="10.02" cy="10.02" r="10.02"/>
      <circle class="cls-2" cx="10.02" cy="10.02" r="10.02"/>
      <g>
        <path class="cls-1" d="M14.62,9.94c0,2.81-1.8,4.95-4.62,4.95s-4.77-2.14-4.77-4.95,1.96-5.16,4.77-5.16,4.62,2.35,4.62,5.16Z"/>
        <path class="cls-1" d="M14.74,14.97c-1.27,1.16-1.6-2.12-3.19-1.46s.49,3.28-1.23,3.35.16-2.78-1.49-3.3-2.14,3.4-3.51,2.35,2.5-2.66,1.57-4.12-3.7,1.28-4.07-.4,2.74-.44,2.97-2.15-2.33-.92-1.53-2.45,2.05,1.5,3.32.34-1.62-2.66-.03-3.32.59,2.28,2.31,2.21.75-3.79,2.39-3.27-.81,2.37.56,3.42,1.9-1.39,2.82.06-2.13,1.03-1.75,2.72,2.92.01,2.69,1.72-2.65-.69-3.17.95c-.58,1.83,2.61,2.18,1.33,3.34Z"/>
      </g>
    </g>
  </g>
</svg>