<?xml version="1.0" encoding="UTF-8"?>
<svg id="Layer_2" data-name="Layer 2" xmlns="http://www.w3.org/2000/svg" viewBox="0 0 37.86 24.39">
  <defs>
    <style>
      .cls-1 {
        fill: #f8f3eb;
      }

      .cls-1, .cls-2 {
        stroke-width: 0px;
      }

      .cls-2 {
        fill: #e09231;
      }
    </style>
  </defs>
  <g id="Layer_1-2" data-name="Layer 1">
    <g>
      <path class="cls-2" d="M37.86,5.82v9.85c0,4.82-2.61,8.72-5.82,8.72H8.72c-4.82,0-8.72-2.61-8.72-5.82v-9.85C0,3.91,2.61,0,5.82,0h23.32c4.82,0,8.72,2.61,8.72,5.82Z"/>
      <path class="cls-1" d="M24.85,11.46c-4.13-2.38-4.11-2.4-8.24-4.79-.71-.41-1.71-.07-1.71.75,0,4.76.3,4.76.3,9.53,0,.82.84,1.4,1.55.99,4.13-2.38,4.17-2.31,8.29-4.69.71-.41.52-1.38-.19-1.79Z"/>
    </g>
  </g>
</svg>