<svg width="134" height="34" viewBox="0 0 134 34" fill="none" xmlns="http://www.w3.org/2000/svg">
<g clip-path="url(#clip0_14_556)">
<path d="M134.5 8.11316V21.8442C134.5 28.5633 130.865 34 126.394 34H13.6454C6.93198 34 1.5 30.3616 1.5 25.8868V12.1558C1.5 5.4506 5.13525 0 9.60619 0H122.355C129.068 0 134.5 3.63838 134.5 8.11316Z" fill="#E09231"/>
<path d="M11.584 4.36328C12.8793 4.36328 13.715 4.93483 13.8961 5.11605C13.8961 8.0156 13.4364 10.6224 12.9629 10.6224C12.4893 10.6224 12.2943 10.3018 11.4029 10.3018C11.1244 10.3018 10.7622 10.4412 10.5394 10.5945C10.2469 11.6261 10.1494 14.6232 10.1494 16.1845C10.1494 19.7114 10.818 22.2206 11.8486 22.2206C12.3918 22.2206 12.9907 21.9976 13.4782 21.5097L13.9239 28.41C13.2136 29.2185 12.3361 29.6368 11.2219 29.6368C8.39445 29.6368 7.08521 22.3739 7.08521 15.9754C7.08521 9.57689 8.82622 4.36328 11.584 4.36328Z" fill="#F8F3EB"/>
<path d="M15.6232 4.64209H19.3838C21.9744 4.64209 22.8519 9.7163 22.8519 12.9225C22.8519 15.2505 22.058 16.9094 21.3476 17.4531L23.1583 28.9119C22.7962 29.2325 21.9466 29.6228 21.2501 29.6228C20.2473 29.6228 19.927 29.0234 19.6623 27.6433L18.7988 19.9065C18.7988 19.9065 18.7013 19.9065 18.6317 19.9065C18.5759 19.9065 18.562 19.9065 18.4924 19.8787V29.3719H15.6232V4.64209ZM19.5788 15.5433C19.8016 15.139 19.9688 14.3444 19.9688 13.4244C19.9688 11.9328 19.7459 9.82782 18.9241 9.82782C18.8406 9.82782 18.5481 9.82782 18.4784 9.8557V15.6687C18.4784 15.6687 18.7013 15.7245 18.8824 15.7245C19.0634 15.7245 19.3559 15.6966 19.5648 15.5293L19.5788 15.5433Z" fill="#F8F3EB"/>
<path d="M24.0636 10.1903C23.994 9.47931 23.98 8.83807 23.98 8.26652C23.98 6.69128 24.2307 4.62814 25.3729 4.62814H29.6488C29.6767 5.43667 29.7045 7.69497 29.7045 8.23864C29.7045 9.47931 29.5513 10.0787 28.9245 10.1624C28.7156 10.1624 28.646 10.1345 28.3256 10.1345V22.4436L29.6349 22.3879C29.6906 23.1406 29.7045 23.768 29.7045 24.2837C29.7045 25.9147 29.5374 29.3579 28.3256 29.3579H24.1054C24.0218 28.647 23.98 24.8553 23.98 24.3116C23.98 22.9873 24.2725 22.5273 24.9829 22.4158C25.1222 22.3879 25.3171 22.3879 25.3868 22.3879V10.1345L24.0636 10.1903Z" fill="#F8F3EB"/>
<path d="M35.0669 4.36328C36.1951 4.36328 37.1283 4.62814 37.8386 5.10211C37.7411 8.0853 37.3093 10.4969 36.7522 10.4969C36.0836 10.4969 35.7772 10.0648 34.8998 10.0648C34.649 10.0648 34.4262 10.1206 34.2591 10.2321C34.1755 10.4551 34.1337 12.1976 34.1337 12.4625C34.1337 12.8668 34.2033 13.4383 35.3872 14.1493C37.5461 15.3202 38.0197 18.6659 38.0197 20.8545C38.0197 24.4092 36.4736 29.6507 34.2869 29.6507C32.6712 29.6507 31.752 29.0791 31.2366 28.5355C31.2227 25.9566 31.752 21.9697 32.2534 21.9697C32.9359 21.9697 33.3398 22.6527 34.273 22.6527C34.4819 22.6527 34.7187 22.6249 34.8998 22.4855C34.9694 22.4018 35.053 21.9418 35.053 21.6491C35.053 21.0775 34.9833 20.4223 33.7298 19.6696C32.0166 18.6101 31.2227 15.8081 31.2227 13.1037C31.2227 10.009 32.4205 4.39116 35.039 4.39116L35.0669 4.36328Z" fill="#F8F3EB"/>
<path d="M43.758 4.64209C46.279 4.64209 47.2401 9.59084 47.2401 13.7311C47.2401 17.4391 45.9169 21.5794 43.382 21.5794C43.1731 21.5794 42.992 21.5794 42.8666 21.5515V29.3719H39.9974V4.64209H43.758ZM44.1202 16.0591C44.2734 15.5154 44.343 14.6511 44.343 13.5917C44.343 12.0443 44.1341 9.84176 43.4377 9.84176C43.2288 9.84176 43.0338 9.86964 42.8806 9.9254V16.31C42.8806 16.31 43.2009 16.3936 43.3959 16.3936C43.6048 16.3936 43.9252 16.3379 44.1341 16.073L44.1202 16.0591Z" fill="#F8F3EB"/>
<path d="M47.2401 4.90694C47.7555 4.65602 48.5911 4.41904 49.2876 4.41904C50.4993 4.41904 50.6525 6.8028 50.8057 8.67078L51.4325 15.4317H51.4464L52.491 4.62814H55.2627L52.7835 20.7848V29.3579H49.8725V20.9381L47.254 4.893L47.2401 4.90694Z" fill="#F8F3EB"/>
<path d="M82.7012 4.36328C83.9965 4.36328 84.8322 4.93483 85.0133 5.11605C85.0133 8.0156 84.5536 10.6224 84.0801 10.6224C83.6065 10.6224 83.4115 10.3018 82.5201 10.3018C82.2416 10.3018 81.8794 10.4412 81.6566 10.5945C81.3641 11.6261 81.2666 14.6232 81.2666 16.1845C81.2666 19.7114 81.9351 22.2206 82.9658 22.2206C83.509 22.2206 84.1079 21.9976 84.5954 21.5097L85.0411 28.41C84.3308 29.2185 83.4533 29.6368 82.3391 29.6368C79.5116 29.6368 78.2024 22.3739 78.2024 15.9754C78.2024 9.57689 79.9573 4.36328 82.7151 4.36328H82.7012Z" fill="#F8F3EB"/>
<path d="M86.3782 4.64209H90.1388C92.7295 4.64209 93.6069 9.7163 93.6069 12.9225C93.6069 15.2505 92.8131 16.9094 92.1027 17.4531L93.9134 28.9119C93.5512 29.2325 92.7016 29.6228 92.0052 29.6228C91.0024 29.6228 90.682 29.0234 90.4174 27.6433L89.5539 19.9065C89.5539 19.9065 89.4564 19.9065 89.3867 19.9065C89.331 19.9065 89.3171 19.9065 89.2474 19.8787V29.3719H86.3782V4.64209ZM90.3478 15.5433C90.5706 15.139 90.7378 14.3444 90.7378 13.4244C90.7378 11.9328 90.5149 9.82782 89.6931 9.82782C89.6096 9.82782 89.3171 9.82782 89.2474 9.8557V15.6687C89.2474 15.6687 89.4703 15.7245 89.6514 15.7245C89.8324 15.7245 90.1249 15.6966 90.3338 15.5293L90.3478 15.5433Z" fill="#F8F3EB"/>
<path d="M94.178 4.82329C94.6237 4.62813 95.1947 4.53055 95.7797 4.53055C96.9079 4.53055 97.1308 6.59369 97.1308 9.03321V20.8823C97.1308 22.0812 97.3675 22.4018 97.8968 22.4018C98.1893 22.4018 98.4818 22.2624 98.6768 22.0812V4.64207H101.574V28.0197C100.752 28.7725 99.4428 29.6507 97.6322 29.6507C95.0694 29.6507 94.1919 24.9529 94.1919 20.9381V4.82329H94.178Z" fill="#F8F3EB"/>
<path d="M102.66 4.64209H106.449L107.66 16.8258H107.828L108.914 4.64209H112.856V29.0513C112.521 29.2743 111.95 29.5113 111.421 29.5113C110.53 29.5113 110.112 26.0263 110.14 24.0468L110.265 14.442H110.084L109.067 27.6991C108.552 27.9918 108.176 28.0755 107.563 28.0755C106.644 28.0755 106.323 24.4371 106.128 22.5691L105.279 14.4281H105.098L105.251 29.3858H102.646V4.64209H102.66Z" fill="#F8F3EB"/>
<path d="M114.332 29.0931V4.64209H117.549C119.931 4.64209 121.296 7.43012 121.296 10.5527C121.296 11.9885 120.809 14.9857 120.14 15.7384C121.059 16.3657 121.658 19.112 121.658 20.8127C121.658 24.3116 120.154 29.6368 117.368 29.6368C116.212 29.6368 115.196 29.3858 114.346 29.0931H114.332ZM117.173 9.75812V14.6232H118.162C118.455 14.1632 118.608 13.4801 118.608 12.6716C118.608 11.8073 118.329 9.73024 117.633 9.73024L117.173 9.75812ZM117.173 17.6343V22.9316C117.354 23.0431 117.549 23.071 117.717 23.071C117.967 23.071 118.232 22.9873 118.413 22.8061C118.566 22.4297 118.719 21.7745 118.719 20.9939C118.719 20.0738 118.552 17.941 118.204 17.6482H117.159L117.173 17.6343Z" fill="#F8F3EB"/>
<path d="M125.962 4.36328C127.09 4.36328 128.023 4.62814 128.734 5.10211C128.636 8.0853 128.204 10.4969 127.647 10.4969C126.979 10.4969 126.672 10.0648 125.795 10.0648C125.544 10.0648 125.321 10.1206 125.154 10.2321C125.071 10.4551 125.029 12.1976 125.029 12.4625C125.029 12.8668 125.098 13.4383 126.282 14.1493C128.441 15.3202 128.915 18.6659 128.915 20.8545C128.915 24.4092 127.369 29.6507 125.182 29.6507C123.566 29.6507 122.647 29.0791 122.132 28.5355C122.118 25.9566 122.647 21.9697 123.149 21.9697C123.831 21.9697 124.235 22.6527 125.168 22.6527C125.377 22.6527 125.614 22.6249 125.795 22.4855C125.865 22.4018 125.948 21.9418 125.948 21.6491C125.948 21.0775 125.878 20.4223 124.625 19.6696C122.912 18.6101 122.118 15.8081 122.118 13.1037C122.118 10.009 123.316 4.39116 125.934 4.39116L125.962 4.36328Z" fill="#F8F3EB"/>
<path d="M73.1325 16.2821C67.3802 12.9644 67.1852 13.2989 61.4468 9.98116C60.4579 9.40961 59.3297 9.8557 59.3297 10.9988C59.3297 17.6343 59.7058 17.6343 59.7058 24.2837C59.7058 25.4268 60.7504 26.3887 61.7532 25.8032C67.5055 22.4855 67.3384 22.2067 73.0907 18.8889C74.0796 18.3174 74.1353 16.8676 73.1464 16.2821H73.1325Z" fill="#F8F3EB"/>
</g>
<defs>
<clipPath id="clip0_14_556">
<rect width="133" height="34" fill="white" transform="translate(0.5)"/>
</clipPath>
</defs>
</svg>
