<?xml version="1.0" encoding="UTF-8"?>
<svg id="Layer_2" data-name="Layer 2" xmlns="http://www.w3.org/2000/svg" viewBox="0 0 20.04 20.04">
  <defs>
    <style>
      .cls-1 {
        fill: #f8f3eb;
      }

      .cls-1, .cls-2 {
        stroke-width: 0px;
      }

      .cls-2 {
        fill: none;
      }
    </style>
  </defs>
  <g id="Layer_1-2" data-name="Layer 1">
    <g>
      <circle class="cls-2" cx="10.02" cy="10.02" r="10.02"/>
      <circle class="cls-2" cx="10.02" cy="10.02" r="10.02"/>
      <circle class="cls-2" cx="10.02" cy="10.02" r="10.02"/>
      <g>
        <path class="cls-1" d="M14.36,16.47c-.51,0-1.02-.2-1.41-.59-1.09-1.09-1.64-1.63-2.19-2.16-.56-.55-1.12-1.09-2.23-2.2-1.06-1.06-1.6-1.55-2.18-2.06-.59-.53-1.19-1.08-2.33-2.21-.78-.78-.78-2.05,0-2.83.78-.78,2.05-.78,2.83,0,1.06,1.06,1.6,1.55,2.18,2.07.59.53,1.19,1.07,2.33,2.21,1.09,1.09,1.64,1.63,2.19,2.17.56.55,1.12,1.09,2.23,2.2.78.78.78,2.05,0,2.83-.39.39-.9.59-1.41.59Z"/>
        <path class="cls-1" d="M5.72,16.53c-.51,0-1.02-.2-1.41-.59-.78-.78-.78-2.05,0-2.83,1.12-1.11,1.69-1.66,2.26-2.2.55-.53,1.11-1.05,2.19-2.13,1.18-1.18,1.85-1.71,2.5-2.22.58-.46,1.13-.9,2.15-1.91.78-.78,2.05-.78,2.83,0,.78.78.78,2.05,0,2.83-1.18,1.18-1.85,1.71-2.5,2.22-.58.46-1.13.9-2.15,1.91-1.12,1.12-1.69,1.66-2.26,2.2-.55.52-1.11,1.05-2.18,2.13-.39.39-.9.59-1.41.59Z"/>
      </g>
    </g>
  </g>
</svg>