<?xml version="1.0" encoding="UTF-8"?>
<svg id="Layer_2" data-name="Layer 2" xmlns="http://www.w3.org/2000/svg" viewBox="0 0 20.04 20.04">
  <defs>
    <style>
      .cls-1 {
        fill: #f8f3eb;
      }

      .cls-1, .cls-2 {
        stroke-width: 0px;
      }

      .cls-2 {
        fill: none;
      }
    </style>
  </defs>
  <g id="Layer_1-2" data-name="Layer 1">
    <g>
      <circle class="cls-2" cx="10.02" cy="10.02" r="10.02"/>
      <circle class="cls-2" cx="10.02" cy="10.02" r="10.02"/>
      <circle class="cls-2" cx="10.02" cy="10.02" r="10.02"/>
      <path class="cls-1" d="M16.9,10.53c0,1.1-.64,1.79-1.74,1.79-1.43,0-2.33.38-3.2.32-.01.73.06,1.38.06,2.51s-1.15,1.78-2.26,1.78-1.83-.68-1.83-1.78c0-1.3-.35-2.12-.33-2.94-.77-.05-1.49-.02-2.73-.02-1.1,0-1.73-1.12-1.73-2.23s.63-1.99,1.73-1.99c1.3,0,2.16-.11,2.98-.06.03-.82.02-1.67.02-3.03,0-1.1,1.06-1.86,2.16-1.86s1.92.76,1.92,1.86c0,1.54,0,2.68-.02,3.59.82.06,1.84.14,3.21.14,1.1,0,1.74.81,1.74,1.92Z"/>
    </g>
  </g>
</svg>