<?xml version="1.0" encoding="UTF-8"?>
<svg id="Layer_2" data-name="Layer 2" xmlns="http://www.w3.org/2000/svg" viewBox="0 0 20.04 20.04">
  <defs>
    <style>
      .cls-1 {
        fill: #f8f3eb;
      }

      .cls-1, .cls-2 {
        stroke-width: 0px;
      }

      .cls-2 {
        fill: none;
      }
    </style>
  </defs>
  <g id="Layer_1-2" data-name="Layer 1">
    <g>
      <circle class="cls-2" cx="10.02" cy="10.02" r="10.02"/>
      <circle class="cls-2" cx="10.02" cy="10.02" r="10.02"/>
      <circle class="cls-2" cx="10.02" cy="10.02" r="10.02"/>
      <path class="cls-1" d="M7.49,15.84c-2.58,0-3.38-1.96-3.77-2.92-.22-.54-.41-1.01-.79-1.38-.78-.78-.78-2.05,0-2.83.78-.78,2.05-.78,2.83,0,.95.95,1.36,1.97,1.66,2.71.05.13.12.29.18.42h0c.15-.01.24-.03.29-.04.07-.14.17-.45.24-.68.29-.89.68-2.12,1.85-3.28,1-1,1.5-1.5,2-1.99.5-.49,1-.99,1.99-1.98.78-.78,2.05-.78,2.83,0,.78.78.78,2.05,0,2.83-1,1-1.5,1.5-2,1.99-.5.49-1,.99-1.99,1.98-.48.48-.65,1.01-.87,1.68-.39,1.22-1.05,3.25-4.04,3.48-.15.01-.29.02-.43.02Z"/>
    </g>
  </g>
</svg>