<?xml version="1.0" encoding="UTF-8"?>
<svg id="Layer_2" data-name="Layer 2" xmlns="http://www.w3.org/2000/svg" viewBox="0 0 20.04 20.04">
  <defs>
    <style>
      .cls-1 {
        fill: none;
      }

      .cls-1, .cls-2 {
        stroke-width: 0px;
      }

      .cls-2 {
        fill: #e09231;
      }
    </style>
  </defs>
  <g id="Layer_1-2" data-name="Layer 1">
    <g>
      <path class="cls-1" d="M10.02,0C4.49,0,0,4.48,0,10.02s4.49,10.02,10.02,10.02,10.02-4.49,10.02-10.02S15.55,0,10.02,0ZM13.55,10.85c.56.55,1.12,1.1,2.23,2.2.78.78.78,2.05,0,2.83-.39.39-.9.59-1.42.59s-1.02-.2-1.41-.59c-1.09-1.09-1.64-1.63-2.19-2.16-.21-.21-.42-.41-.66-.65-.29.28-.54.51-.78.75-.56.52-1.11,1.05-2.19,2.12-.39.39-.9.59-1.41.59s-1.02-.2-1.41-.59c-.79-.78-.79-2.05,0-2.83,1.11-1.11,1.68-1.65,2.26-2.2.21-.2.43-.41.68-.64-.33-.31-.61-.56-.89-.82-.59-.53-1.2-1.07-2.33-2.21-.78-.78-.78-2.05,0-2.83s2.05-.78,2.83,0c1.06,1.06,1.6,1.55,2.18,2.07.32.29.65.6,1.08,1.01.44-.38.79-.66,1.13-.93.59-.46,1.14-.89,2.15-1.91.78-.78,2.05-.78,2.83,0s.78,2.05,0,2.83c-1.18,1.18-1.85,1.71-2.5,2.22-.24.19-.47.38-.74.6.2.2.38.38.56.55Z"/>
      <path class="cls-1" d="M10.02,0C4.49,0,0,4.48,0,10.02s4.49,10.02,10.02,10.02,10.02-4.49,10.02-10.02S15.55,0,10.02,0ZM13.55,10.85c.56.55,1.12,1.1,2.23,2.2.78.78.78,2.05,0,2.83-.39.39-.9.59-1.42.59s-1.02-.2-1.41-.59c-1.09-1.09-1.64-1.63-2.19-2.16-.21-.21-.42-.41-.66-.65-.29.28-.54.51-.78.75-.56.52-1.11,1.05-2.19,2.12-.39.39-.9.59-1.41.59s-1.02-.2-1.41-.59c-.79-.78-.79-2.05,0-2.83,1.11-1.11,1.68-1.65,2.26-2.2.21-.2.43-.41.68-.64-.33-.31-.61-.56-.89-.82-.59-.53-1.2-1.07-2.33-2.21-.78-.78-.78-2.05,0-2.83s2.05-.78,2.83,0c1.06,1.06,1.6,1.55,2.18,2.07.32.29.65.6,1.08,1.01.44-.38.79-.66,1.13-.93.59-.46,1.14-.89,2.15-1.91.78-.78,2.05-.78,2.83,0s.78,2.05,0,2.83c-1.18,1.18-1.85,1.71-2.5,2.22-.24.19-.47.38-.74.6.2.2.38.38.56.55Z"/>
      <path class="cls-1" d="M10.02,0C4.49,0,0,4.48,0,10.02s4.49,10.02,10.02,10.02,10.02-4.49,10.02-10.02S15.55,0,10.02,0ZM13.55,10.85c.56.55,1.12,1.1,2.23,2.2.78.78.78,2.05,0,2.83-.39.39-.9.59-1.42.59s-1.02-.2-1.41-.59c-1.09-1.09-1.64-1.63-2.19-2.16-.21-.21-.42-.41-.66-.65-.29.28-.54.51-.78.75-.56.52-1.11,1.05-2.19,2.12-.39.39-.9.59-1.41.59s-1.02-.2-1.41-.59c-.79-.78-.79-2.05,0-2.83,1.11-1.11,1.68-1.65,2.26-2.2.21-.2.43-.41.68-.64-.33-.31-.61-.56-.89-.82-.59-.53-1.2-1.07-2.33-2.21-.78-.78-.78-2.05,0-2.83s2.05-.78,2.83,0c1.06,1.06,1.6,1.55,2.18,2.07.32.29.65.6,1.08,1.01.44-.38.79-.66,1.13-.93.59-.46,1.14-.89,2.15-1.91.78-.78,2.05-.78,2.83,0s.78,2.05,0,2.83c-1.18,1.18-1.85,1.71-2.5,2.22-.24.19-.47.38-.74.6.2.2.38.38.56.55Z"/>
      <path class="cls-2" d="M15.78,13.05c.78.78.78,2.05,0,2.83-.39.39-.9.59-1.42.59s-1.02-.2-1.41-.59c-1.09-1.09-1.64-1.63-2.19-2.16-.21-.21-.42-.41-.66-.65-.29.28-.54.51-.78.75-.56.52-1.11,1.05-2.19,2.12-.39.39-.9.59-1.41.59s-1.02-.2-1.41-.59c-.79-.78-.79-2.05,0-2.83,1.11-1.11,1.68-1.65,2.26-2.2.21-.2.43-.41.68-.64-.33-.31-.61-.56-.89-.82-.59-.53-1.2-1.07-2.33-2.21-.78-.78-.78-2.05,0-2.83s2.05-.78,2.83,0c1.06,1.06,1.6,1.55,2.18,2.07.32.29.65.6,1.08,1.01.44-.38.79-.66,1.13-.93.59-.46,1.14-.89,2.15-1.91.78-.78,2.05-.78,2.83,0s.78,2.05,0,2.83c-1.18,1.18-1.85,1.71-2.5,2.22-.24.19-.47.38-.74.6.2.2.38.38.56.55.56.55,1.12,1.1,2.23,2.2Z"/>
    </g>
  </g>
</svg>