<?xml version="1.0" encoding="UTF-8"?>
<svg id="Layer_2" xmlns="http://www.w3.org/2000/svg" viewBox="0 0 20.04 20.04">
  <defs>
    <style>
      .cls-1 {
        fill: none;
      }

      .cls-2 {
        fill: #f8f3eb;
      }
    </style>
  </defs>
  <g id="Layer_1-2" data-name="Layer_1">
    <g>
      <circle class="cls-1" cx="10.02" cy="10.02" r="10.02"/>
      <circle class="cls-1" cx="10.02" cy="10.02" r="10.02"/>
      <circle class="cls-1" cx="10.02" cy="10.02" r="10.02"/>
      <g>
        <g>
          <path class="cls-2" d="M13.12,13.12v1.17c0,1.36-1.11,2.49-2.49,2.49h-4.88c-1.36,0-2.48-1.12-2.48-2.49v-4.88c0-1.38,1.11-2.49,2.48-2.49h1.17v3.73c0,1.36,1.11,2.48,2.48,2.48h3.73Z"/>
          <path class="cls-2" d="M13.12,9.4v2.62h-3.73c-.76,0-1.38-.62-1.38-1.38v-3.73h2.62c1.38,0,2.49,1.11,2.49,2.49Z"/>
        </g>
        <path class="cls-2" d="M14.29,3.27h-4.9c-1.36,0-2.48,1.11-2.48,2.49v1.16h1.1v-1.16c0-.77.62-1.39,1.38-1.39h4.9c.76,0,1.38.62,1.38,1.39v4.88c0,.76-.62,1.38-1.38,1.38h-1.17v1.1h1.17c1.36,0,2.48-1.11,2.48-2.48v-4.88c0-1.38-1.11-2.49-2.48-2.49Z"/>
      </g>
    </g>
  </g>
</svg>