<?xml version="1.0" encoding="UTF-8"?>
<svg id="Layer_2" data-name="Layer 2" xmlns="http://www.w3.org/2000/svg" viewBox="0 0 20.04 20.04">
  <defs>
    <style>
      .cls-1 {
        fill: #E09231;
      }

      .cls-1, .cls-2 {
        stroke-width: 0px;
      }

      .cls-2 {
        fill: none;
      }
    </style>
  </defs>
  <g id="Layer_1-2" data-name="Layer 1">
    <g>
      <circle class="cls-2" cx="10.02" cy="10.02" r="10.02"/>
      <circle class="cls-2" cx="10.02" cy="10.02" r="10.02"/>
      <circle class="cls-2" cx="10.02" cy="10.02" r="10.02"/>
      <path class="cls-1" d="M14.69,11.81c-.51.07-2.51.02-3.29.09.2.7.69,2.89.6,3.45-.11.67-1.46.86-2,.25-.37-.42-.31-.79-.37-1.23-.25-1.9-.8-2.75-2.56-3.58-.05.21-.26.33-.47.38-.15.04-1.43.03-1.6,0-.42-.09-.59-.58-.58-.63,0,0,.17-.07.18-.15.09-.62-.32-3.69-.28-4.16,0-.02.16-.41.17-.43.07-.13.45-.47.59-.49.07,0,1.38.36,1.45.37.14.02.5-.06.59.06.22.27,0,.7.13.75.02-.02.4-.55.45-.57,1.37-.63,4.06-.33,5.59-.37.71.06,1.23.78.89,1.48,1.16.61.5,1.36.5,1.45,0,.08.93.46.48,1.47.93.53.57,1.72-.48,1.85Z"/>
    </g>
  </g>
</svg>