<?xml version="1.0" encoding="UTF-8"?>
<svg id="Layer_2" data-name="Layer 2" xmlns="http://www.w3.org/2000/svg" viewBox="0 0 20.04 20.04">
  <defs>
    <style>
      .cls-1 {
        fill: #f8f3eb;
      }

      .cls-1, .cls-2 {
        stroke-width: 0px;
      }

      .cls-2 {
        fill: none;
      }
    </style>
  </defs>
  <g id="Layer_1-2" data-name="Layer 1">
    <g>
      <circle class="cls-2" cx="10.02" cy="10.02" r="10.02"/>
      <circle class="cls-2" cx="10.02" cy="10.02" r="10.02"/>
      <circle class="cls-2" cx="10.02" cy="10.02" r="10.02"/>
      <path class="cls-1" d="M17.56,9.19c-1.58,1.57-1.67,1.48-3.24,3.06s-1.47,1.68-3.05,3.25c-.68.68-1.7.56-2.39-.12-1.58-1.57-1.6-1.55-3.18-3.12s-1.66-1.49-3.23-3.07c-.68-.68-.74-1.86-.06-2.54.34-.34.84-.48,1.29-.48s.79.31,1.13.65c1.27,1.27,1.43,1.11,2.7,2.38s.69,2.67,2.48,2.67,1.18-1.44,2.44-2.71,1.31-1.23,2.58-2.5c.68-.68,1.87-.67,2.55,0,.69.68.66,1.84-.03,2.52Z"/>
    </g>
  </g>
</svg>