<?xml version="1.0" encoding="UTF-8"?>
<svg id="Layer_2" data-name="Layer 2" xmlns="http://www.w3.org/2000/svg" viewBox="0 0 20.04 20.04">
  <defs>
    <style>
      .cls-1 {
        fill: #f8f3eb;
      }

      .cls-1, .cls-2 {
        stroke-width: 0px;
      }

      .cls-2 {
        fill: none;
      }
    </style>
  </defs>
  <g id="Layer_1-2" data-name="Layer 1">
    <g>
      <circle class="cls-2" cx="10.02" cy="10.02" r="10.02"/>
      <circle class="cls-2" cx="10.02" cy="10.02" r="10.02"/>
      <circle class="cls-2" cx="10.02" cy="10.02" r="10.02"/>
      <g>
        <path class="cls-1" d="M6.56,5.19c-.68.68-.65.71-1.34,1.4-.37.37-.94.34-1.31-.04-.27-.27-.31-.23-.58-.49-.37-.37-.35-.97.02-1.34.68-.68.71-.66,1.39-1.34.37-.37.91-.39,1.29-.02.27.27.3.23.57.5.37.37.33.96-.04,1.33Z"/>
        <path class="cls-1" d="M12.04,15.75c-.29-.12.68-.27.47-.51-3.16-3.61-3.39-3.38-6.78-6.77-.37-.37-.31-.72-.07-.97.92-.92.87-.96,1.79-1.88.24-.24.56-.18.93.19,3.39,3.39,3.25,3.54,6.86,6.7.24.21.2-.68.32-.39.78,1.89.62,1.93,1.13,3.92.12.47-.16.62-.63.5-2.05-.22-2.12,0-4.01-.79Z"/>
      </g>
    </g>
  </g>
</svg>