<?xml version="1.0" encoding="UTF-8"?>
<svg id="Layer_2" xmlns="http://www.w3.org/2000/svg" viewBox="0 0 20.04 20.04">
  <defs>
    <style>
      .cls-1 {
        fill: none;
      }

      .cls-2 {
        fill: #f8f3eb;
      }
    </style>
  </defs>
  <g id="Layer_1-2" data-name="Layer_1">
    <g>
      <circle class="cls-1" cx="10.02" cy="10.02" r="10.02"/>
      <g>
        <path class="cls-2" d="M9.64,5.97c0,1.05-.07,1.05-.07,2.11,0,.86-.7,1.49-1.56,1.49-1.05,0-1.05.16-2.11.16-.86,0-1.55-.79-1.55-1.66,0-1.05-.11-1.05-.11-2.11,0-.86.79-1.49,1.66-1.49,1.05,0,1.05.02,2.11.02.86,0,1.63.61,1.63,1.47Z"/>
        <path class="cls-2" d="M14.14,9.71c-1.05,0-1.05-.07-2.11-.07-.86,0-1.49-.7-1.49-1.56,0-1.05-.16-1.05-.16-2.11,0-.86.79-1.55,1.66-1.55,1.05,0,1.05-.11,2.11-.11.86,0,1.49.79,1.49,1.66,0,1.05-.02,1.05-.02,2.11,0,.86-.61,1.63-1.47,1.63Z"/>
        <path class="cls-2" d="M9.64,11.96c0,1.05-.07,1.05-.07,2.11,0,.86-.7,1.49-1.56,1.49-1.05,0-1.05.16-2.11.16-.86,0-1.55-.79-1.55-1.66,0-1.05-.11-1.05-.11-2.11,0-.86.79-1.49,1.66-1.49,1.05,0,1.05.02,2.11.02.86,0,1.63.61,1.63,1.47Z"/>
        <path class="cls-2" d="M10.4,14.07c0-1.05.07-1.05.07-2.11,0-.86.7-1.49,1.56-1.49,1.05,0,1.05-.16,2.11-.16.86,0,1.55.79,1.55,1.66,0,1.05.11,1.05.11,2.11,0,.86-.79,1.49-1.66,1.49-1.05,0-1.05-.02-2.11-.02-.86,0-1.63-.61-1.63-1.47Z"/>
      </g>
    </g>
  </g>
</svg>