<?xml version="1.0" encoding="UTF-8"?>
<svg id="Layer_2" data-name="Layer 2" xmlns="http://www.w3.org/2000/svg" viewBox="0 0 20.04 20.04">
  <defs>
    <style>
      .cls-1 {
        fill: #f8f3eb;
      }

      .cls-1, .cls-2 {
        stroke-width: 0px;
      }

      .cls-2 {
        fill: none;
      }
    </style>
  </defs>
  <g id="Layer_1-2" data-name="Layer 1">
    <g>
      <circle class="cls-2" cx="10.02" cy="10.02" r="10.02"/>
      <circle class="cls-2" cx="10.02" cy="10.02" r="10.02"/>
      <circle class="cls-2" cx="10.02" cy="10.02" r="10.02"/>
      <path class="cls-1" d="M14.72,8.05c-.51-.07-2.51.14-3.28.07.2-.7.27-2.8.18-3.37-.11-.67-1.01-.87-1.55-.26-.37.42-.13.77-.18,1.21-.25,1.9-.93,3.04-2.69,3.86-.05-.21-.35-.71-.56-.77-.15-.04-1.46-.04-1.63,0-.42.09-.69.68-.68.73,0,0,.04.09.05.17.09.62.23,3.62.28,4.09,0,.02.05.34.06.36.07.13.3.16.44.18.07,0,1.38.43,1.45.42.14-.02.35-.4.45-.52.22-.27.15-.29.28-.34.02.02.45-.04.5-.02,1.37.63,3.95.51,5.47.55.71-.06,1.41-.6,1.07-1.31,1.16-.61.46-1.46.46-1.55,0-.08.67-.51.22-1.52.93-.53.72-1.86-.33-2Z"/>
    </g>
  </g>
</svg>