<?xml version="1.0" encoding="UTF-8"?>
<svg id="Layer_2" xmlns="http://www.w3.org/2000/svg" viewBox="0 0 20.04 20.04">
  <defs>
    <style>
      .cls-1 {
        fill: none;
      }

      .cls-2 {
        fill: #f8f3eb;
      }
    </style>
  </defs>
  <g id="Layer_1-2" data-name="Layer_1">
    <g>
      <circle class="cls-1" cx="10.02" cy="10.02" r="10.02"/>
      <g>
        <path class="cls-2" d="M3.53,5.7h.1c0-.86.58-1.5,1.44-1.5,2.47,0,2.47.13,4.94.13s2.47-.29,4.94-.29c.86,0,1.67.78,1.67,1.65h.15c0,.86-.95,1.78-1.81,1.78-2.47,0-2.47-.45-4.94-.45s-2.47.34-4.94.34c-.86,0-1.54-.8-1.54-1.67Z"/>
        <path class="cls-2" d="M3.53,9.89h.05c0-.86.63-1.43,1.49-1.43,2.47,0,2.47.07,4.94.07s2.47-.33,4.94-.33c.86,0,1.45.83,1.45,1.69h.26c0,.86-.85,1.41-1.71,1.41-2.47,0-2.47-.1-4.94-.1s-2.47.04-4.94.04c-.86,0-1.54-.49-1.54-1.35Z"/>
        <path class="cls-2" d="M3.44,14.09s.19,0,.19,0c0-.86.58-1.62,1.45-1.62,2.47,0,2.47-.05,4.94-.05s2.47.14,4.94.14c.86,0,1.39.67,1.39,1.53,0,0,.14,0,.14,0,0,.86-.67,1.36-1.53,1.36-2.47,0-2.47.2-4.94.2s-2.47.25-4.94.25c-.86,0-1.64-.95-1.64-1.81Z"/>
      </g>
    </g>
  </g>
</svg>