<?xml version="1.0" encoding="UTF-8"?>
<svg id="Layer_2" data-name="Layer 2" xmlns="http://www.w3.org/2000/svg" viewBox="0 0 87.49 18.13">
  <defs>
    <style>
      .cls-1 {
        fill: #f8f3eb;
        stroke-width: 0px;
      }
    </style>
  </defs>
  <g id="Layer_1-2" data-name="Layer 1">
    <g>
      <g>
        <path class="cls-1" d="M3.24,0c.93,0,1.53.41,1.66.54,0,2.08-.33,3.95-.67,3.95s-.48-.23-1.12-.23c-.2,0-.46.1-.62.21-.21.74-.28,2.89-.28,4.01,0,2.53.48,4.33,1.22,4.33.39,0,.82-.16,1.17-.51l.32,4.95c-.51.58-1.14.88-1.94.88-2.03,0-2.97-5.21-2.97-9.8S1.26,0,3.24,0Z"/>
        <path class="cls-1" d="M6.14.19h2.7c1.86,0,2.49,3.64,2.49,5.94,0,1.67-.57,2.86-1.08,3.25l1.3,8.22c-.26.23-.87.51-1.37.51-.72,0-.95-.43-1.14-1.42l-.62-5.55s-.07,0-.12,0c-.04,0-.05,0-.1-.02v6.81h-2.06V.19ZM8.98,8.02c.16-.29.28-.86.28-1.52,0-1.07-.16-2.58-.75-2.58-.06,0-.27,0-.32.02v4.17s.16.04.29.04.34-.02.49-.14Z"/>
        <path class="cls-1" d="M12.2,4.18c-.05-.51-.06-.97-.06-1.38,0-1.13.18-2.61,1-2.61h3.07c.02.58.04,2.2.04,2.59,0,.89-.11,1.32-.56,1.38-.15,0-.2-.02-.43-.02v8.83l.94-.04c.04.54.05.99.05,1.36,0,1.17-.12,3.64-.99,3.64h-3.03c-.06-.51-.09-3.23-.09-3.62,0-.95.21-1.28.72-1.36.1-.02.24-.02.29-.02V4.14l-.95.04Z"/>
        <path class="cls-1" d="M20.1,0c.81,0,1.48.19,1.99.53-.07,2.14-.38,3.87-.78,3.87-.48,0-.7-.31-1.33-.31-.18,0-.34.04-.46.12-.06.16-.09,1.41-.09,1.6,0,.29.05.7.9,1.21,1.55.84,1.89,3.24,1.89,4.81,0,2.55-1.11,6.31-2.68,6.31-1.16,0-1.82-.41-2.19-.8-.01-1.85.37-4.71.73-4.71.49,0,.78.49,1.45.49.15,0,.32-.02.45-.12.05-.06.11-.39.11-.6,0-.41-.05-.88-.95-1.42-1.23-.76-1.8-2.77-1.8-4.71,0-2.22.86-6.25,2.74-6.25Z"/>
        <path class="cls-1" d="M26.34.19c1.81,0,2.5,3.55,2.5,6.52,0,2.66-.95,5.63-2.77,5.63-.15,0-.28,0-.37-.02v5.61h-2.06V.19h2.7ZM26.6,8.39c.11-.39.16-1.01.16-1.77,0-1.11-.15-2.69-.65-2.69-.15,0-.29.02-.4.06v4.58s.23.06.37.06c.15,0,.38-.04.53-.23Z"/>
        <path class="cls-1" d="M28.84.39c.37-.18.97-.35,1.47-.35.87,0,.98,1.71,1.09,3.05l.45,4.85h.01l.75-7.75h1.99l-1.78,11.59v6.15h-2.09v-6.04L28.84.39Z"/>
        <path class="cls-1" d="M54.3,0c.93,0,1.53.41,1.66.54,0,2.08-.33,3.95-.67,3.95s-.48-.23-1.12-.23c-.2,0-.46.1-.62.21-.21.74-.28,2.89-.28,4.01,0,2.53.48,4.33,1.22,4.33.39,0,.82-.16,1.17-.51l.32,4.95c-.51.58-1.14.88-1.94.88-2.03,0-2.97-5.21-2.97-9.8s1.26-8.33,3.24-8.33Z"/>
        <path class="cls-1" d="M56.94.19h2.7c1.86,0,2.49,3.64,2.49,5.94,0,1.67-.57,2.86-1.08,3.25l1.3,8.22c-.26.23-.87.51-1.37.51-.72,0-.95-.43-1.14-1.42l-.62-5.55s-.07,0-.12,0c-.04,0-.05,0-.1-.02v6.81h-2.06V.19ZM59.79,8.02c.16-.29.28-.86.28-1.52,0-1.07-.16-2.58-.75-2.58-.06,0-.27,0-.32.02v4.17s.16.04.29.04.34-.02.49-.14Z"/>
        <path class="cls-1" d="M62.53.33c.32-.14.73-.21,1.15-.21.81,0,.97,1.48.97,3.23v8.5c0,.86.17,1.09.55,1.09.21,0,.42-.1.56-.23V.19h2.08v16.77c-.59.54-1.53,1.17-2.83,1.17-1.84,0-2.47-3.37-2.47-6.25V.33Z"/>
        <path class="cls-1" d="M68.63.19h2.72l.87,8.74h.12l.78-8.74h2.83v17.51c-.24.16-.65.33-1.03.33-.64,0-.94-2.5-.92-3.92l.09-6.89h-.13l-.73,9.51c-.37.21-.64.27-1.08.27-.66,0-.89-2.61-1.03-3.95l-.61-5.84h-.13l.11,10.73h-1.87V.19Z"/>
        <path class="cls-1" d="M77.01,17.74V.19h2.31c1.71,0,2.69,2,2.69,4.24,0,1.03-.35,3.18-.83,3.72.66.45,1.09,2.42,1.09,3.64,0,2.51-1.08,6.33-3.08,6.33-.83,0-1.56-.18-2.17-.39ZM79.05,3.87v3.49h.71c.21-.33.32-.82.32-1.4,0-.62-.2-2.11-.7-2.11l-.33.02ZM79.05,9.52v3.8c.13.08.27.1.39.1.18,0,.37-.06.5-.19.11-.27.22-.74.22-1.3,0-.66-.12-2.19-.37-2.4h-.75Z"/>
        <path class="cls-1" d="M85.36,0c.81,0,1.48.19,1.99.53-.07,2.14-.38,3.87-.78,3.87-.48,0-.7-.31-1.33-.31-.18,0-.34.04-.46.12-.06.16-.09,1.41-.09,1.6,0,.29.05.7.9,1.21,1.55.84,1.89,3.24,1.89,4.81,0,2.55-1.11,6.31-2.68,6.31-1.16,0-1.82-.41-2.19-.8-.01-1.85.37-4.71.73-4.71.49,0,.78.49,1.45.49.15,0,.32-.02.45-.12.05-.06.11-.39.11-.6,0-.41-.05-.88-.95-1.42-1.23-.76-1.8-2.77-1.8-4.71,0-2.22.86-6.25,2.74-6.25Z"/>
      </g>
      <path class="cls-1" d="M47.35,8.69c-4.13-2.38-4.02-2.57-8.14-4.95-.71-.41-1.52.19-1.52,1.01,0,4.76-.28,4.76-.28,9.53,0,.82,1.15,1.54,1.86,1.12,4.13-2.38,4.11-2.42,8.23-4.8.71-.41.56-1.51-.15-1.92Z"/>
    </g>
  </g>
</svg>