<?xml version="1.0" encoding="UTF-8"?>
<svg id="Layer_2" data-name="Layer 2" xmlns="http://www.w3.org/2000/svg" viewBox="0 0 776.63 886.44">
  <defs>
    <style>
      .cls-1 {
        fill: #f8f3eb;
      }

      .cls-1, .cls-2 {
        stroke-width: 0px;
      }

      .cls-2 {
        fill: #da8827;
      }
    </style>
  </defs>
  <g id="Layer_1-2" data-name="Layer 1">
    <g>
      <path class="cls-2" d="M768.06,496.6c-3.15,24.36,5.59,49.83-.77,72.68-6.57,23.61-26.02,41.4-35.69,63.09-9.96,22.35-1.67,54.22-14.55,74.21-13.24,20.55-47.49,24.45-63.41,42.15s-24.14,43.25-42.85,58.03c-19.11,15.1-39.84,26.92-60.98,38.1s-41.11,27.68-64.15,34.57c-23.05,6.89-49.52-9.28-73.7-7.28-23.72,1.96-46.48,17-70.82,13.85s-43.15-21.72-65.59-29.65-46.13-10.52-66.67-23.04c-20.53-12.52-34.81-30.74-52.66-47.16-17.6-16.19-30.3-34.01-44.94-53.48-14.34-19.06-27.05-36.82-38.22-58.52-10.9-21.17-22.54-40.48-30.12-63.72-7.37-22.61-18.24-43.7-22.19-67.85C16.9,519.15.36,495.95,0,471.44c-.34-23.71,10.14-48.07,13.29-72.43,3.15-24.36-2.68-51.11,3.68-73.95s10.67-50.09,20.34-71.78c9.96-22.35,31.01-40.56,43.9-60.55,13.24-20.55,43.79-27.03,59.72-44.73,16.32-18.15,30.22-35.84,48.93-50.62,19.11-15.1,31.61-39.16,52.76-50.34,21.43-11.33,40.42-34.22,63.46-41.11,23.05-6.89,52.22,10.44,76.4,8.44,23.72-1.96,48.8-17.08,73.14-13.94,24.34,3.15,42.15,31.52,64.59,39.45,22.87,8.08,41.66,18.34,62.21,30.86s35.25,28.02,53.1,44.44c17.6,16.19,32.04,31.49,46.69,50.95,14.34,19.06,49.34,24.9,60.51,46.61,10.9,21.17,2.22,50.96,9.8,74.2,7.37,22.61,11.03,44.9,14.98,69.05,3.84,23.44,8.77,45.75,9.12,70.25.34,23.71-5.42,45.99-8.56,70.35Z"/>
      <path class="cls-1" d="M603.3,675.7c-20.49-12.18-44.28-16.21-66.95-24.64-22.24-8.27-42.3-25.49-66.23-29.76s-48-4.87-72.45-4.87-49.59-1.35-72.82,2.79c-23.93,4.27-47.86,12.17-70.09,20.44-22.67,8.44-46.62,30.13-67.11,42.31,7.5-21.26,16.08-51.96,29.56-69.59s37.15-27.08,55.52-39.92c18.11-12.65,39.67-16.57,61.28-23.34,20.81-6.51,40.66-24.26,63.66-24.26s43.29,16.33,64.1,22.84,44.52,9.53,62.63,22.19c18.37,12.84,39.5,25.3,53.05,43.01,13.49,17.63,18.36,41.53,25.85,62.79Z"/>
      <g>
        <path class="cls-1" d="M609.14,375.22c-7.13,17.95-16.12,33.35-31.54,41.11-16.24,8.16-33.77,6.08-51.23-.86-17.47-6.94-34.77-16.32-40.97-33.4-5.9-16.23,1.53-34.61,8.67-52.56,7.13-17.95,16.07-32.98,31.49-40.74,16.24-8.16,34.61-9.3,52.08-2.36s31.94,19.69,38.14,36.77c5.9,16.23.5,34.09-6.63,52.04Z"/>
        <path class="cls-1" d="M325.63,378.3c-7.36,18.53-17.86,33.86-35.61,40.69s-35.67,3.06-54.55-4.44c-18.89-7.5-37.91-16.15-45.86-32.7-8.23-17.14-1.92-36.87,5.45-55.41,7.36-18.53,17.76-33.45,35.51-40.28s36.6-6.46,55.49,1.05,35.03,19.86,42.97,36.41c8.23,17.14,3.97,36.16-3.39,54.69Z"/>
      </g>
    </g>
  </g>
</svg>