<svg width="104" height="98" viewBox="0 0 104 98" fill="none" xmlns="http://www.w3.org/2000/svg">
<path d="M0 0H104V98H0V0Z" fill="#3270A9"/>
<path d="M52 18C34.8787 18 21 31.9505 21 49.1605C21 64.7812 32.4483 77.6817 47.3655 79.9346V57.418H39.6961V49.2259H47.3655V43.7759C47.3655 34.7519 51.7396 30.7914 59.2013 30.7914C62.7756 30.7914 64.6635 31.0562 65.5594 31.1778V38.326H60.4692C57.301 38.326 56.1943 41.3454 56.1943 44.7482V49.2259H65.4788L64.2202 57.418H56.1974V80C71.3285 77.9403 83 64.9339 83 49.1605C83 31.9505 69.1213 18 52 18Z" fill="#F8F3EB"/>
</svg>
