<svg width="104" height="98" viewBox="0 0 104 98" fill="none" xmlns="http://www.w3.org/2000/svg">
<path d="M0 0H104V98H0V0Z" fill="#9E2B99"/>
<path d="M39.5556 21C30.9658 21 24 27.9658 24 36.5556V61.4444C24 70.0342 30.9658 77 39.5556 77H64.4444C73.0342 77 80 70.0342 80 61.4444V36.5556C80 27.9658 73.0342 21 64.4444 21H39.5556ZM70.6667 27.2222C72.384 27.2222 73.7778 28.616 73.7778 30.3333C73.7778 32.0507 72.384 33.4444 70.6667 33.4444C68.9493 33.4444 67.5556 32.0507 67.5556 30.3333C67.5556 28.616 68.9493 27.2222 70.6667 27.2222ZM52 33.4444C60.5898 33.4444 67.5556 40.4102 67.5556 49C67.5556 57.5898 60.5898 64.5556 52 64.5556C43.4102 64.5556 36.4444 57.5898 36.4444 49C36.4444 40.4102 43.4102 33.4444 52 33.4444ZM52 39.6667C49.5246 39.6667 47.1507 40.65 45.4003 42.4003C43.65 44.1507 42.6667 46.5246 42.6667 49C42.6667 51.4754 43.65 53.8493 45.4003 55.5997C47.1507 57.35 49.5246 58.3333 52 58.3333C54.4754 58.3333 56.8493 57.35 58.5997 55.5997C60.35 53.8493 61.3333 51.4754 61.3333 49C61.3333 46.5246 60.35 44.1507 58.5997 42.4003C56.8493 40.65 54.4754 39.6667 52 39.6667Z" fill="#F8F3EB"/>
</svg>
