<svg width="104" height="98" viewBox="0 0 104 98" fill="none" xmlns="http://www.w3.org/2000/svg">
<path d="M0 0H104V98H0V0Z" fill="#578E5E"/>
<path d="M73.2335 27.784C67.5753 22.123 60.0509 19.003 52.0345 19C35.5157 19 22.072 32.437 22.066 48.955C22.063 54.235 23.4431 59.389 26.0652 63.931L22 79L37.6998 75.289C42.077 77.677 47.0032 78.934 52.0195 78.937H52.0315C68.5473 78.937 81.991 65.497 82 48.982C82.006 40.975 78.8918 33.448 73.2335 27.784ZM66.6962 59.662C66.0722 61.411 63.015 63.097 61.641 63.22C60.2669 63.346 58.9798 63.841 52.6555 61.348C45.0441 58.348 40.2379 50.545 39.8659 50.047C39.4909 49.546 36.8087 45.988 36.8087 42.304C36.8087 38.62 38.7438 36.808 39.4309 36.061C40.1179 35.311 40.9279 35.125 41.429 35.125C41.927 35.125 42.428 35.125 42.863 35.143C43.3971 35.164 43.9881 35.191 44.5491 36.436C45.2152 37.918 46.6702 41.62 46.8562 41.995C47.0422 42.37 47.1683 42.808 46.9192 43.306C46.6702 43.804 46.5442 44.116 46.1722 44.554C45.7972 44.992 45.3862 45.529 45.0501 45.865C44.6751 46.237 44.2851 46.645 44.7201 47.392C45.1582 48.142 46.6582 50.593 48.8843 52.576C51.7465 55.126 54.1556 55.915 54.9056 56.293C55.6557 56.668 56.0907 56.605 56.5287 56.104C56.9667 55.606 58.4008 53.92 58.8988 53.17C59.3969 52.42 59.8979 52.546 60.5849 52.795C61.272 53.044 64.9531 54.856 65.7002 55.231C66.4502 55.606 66.9482 55.792 67.1342 56.104C67.3203 56.413 67.3203 57.913 66.6962 59.662Z" fill="#F8F3EB"/>
</svg>
