<?xml version="1.0" encoding="UTF-8"?>
<svg id="Layer_2" data-name="Layer 2" xmlns="http://www.w3.org/2000/svg" viewBox="0 0 20.04 20.04">
  <defs>
    <style>
      .cls-1 {
        fill: #f8f3eb;
      }

      .cls-1, .cls-2 {
        stroke-width: 0px;
      }

      .cls-2 {
        fill: none;
      }
    </style>
  </defs>
  <g id="Layer_1-2" data-name="Layer 1">
    <g>
      <circle class="cls-2" cx="10.02" cy="10.02" r="10.02"/>
      <circle class="cls-2" cx="10.02" cy="10.02" r="10.02"/>
      <circle class="cls-2" cx="10.02" cy="10.02" r="10.02"/>
      <path class="cls-1" d="M15.04,10.78c-.55,0-.55-.4-1.11-.4-.38,0-.67.51-.67.88,0,2.21-.03,2.21-.03,4.41,0,.38-.28.92-.66.92-2.56,0-2.56-.18-5.12-.18-.38,0-.44-.36-.44-.74,0-2.21-.31-2.21-.31-4.41,0-.38-.23-.68-.6-.68-.55,0-.55,0-1.1,0-.59,0-.71-.54-.32-.98,2.51-2.77,2.46-2.82,4.97-5.59.27-.3.52-.34.79-.05,2.51,2.77,2.61,2.69,5.12,5.46.4.44.08,1.34-.51,1.34Z"/>
    </g>
  </g>
</svg>